<svg width="622" height="622" viewBox="0 0 622 622" fill="none" xmlns="http://www.w3.org/2000/svg">
<circle cx="311" cy="311" r="311" fill="#4ED0C5"/>
<rect x="159.261" y="181.085" width="305.541" height="261.893" fill="#F7FBFD"/>
<path d="M473.75 95C488.101 95 501.864 100.701 512.012 110.849C522.159 120.996 527.86 134.76 527.86 149.111V473.822C527.86 488.173 522.159 501.936 512.012 512.084C501.864 522.231 488.101 527.932 473.75 527.932H149.111C142.005 527.932 134.968 526.533 128.403 523.813C121.838 521.094 115.873 517.108 110.849 512.084C105.824 507.059 101.838 501.094 99.1189 494.529C96.3996 487.964 95 480.928 95 473.822V149.111C95 134.76 100.701 120.996 110.849 110.849C120.996 100.701 134.76 95 149.111 95H473.75ZM258.823 214.043L221.378 299.418H185.184C180.401 299.418 175.813 301.318 172.43 304.7C169.048 308.083 167.147 312.671 167.147 317.454C167.147 322.238 169.048 326.826 172.43 330.208C175.813 333.591 180.401 335.491 185.184 335.491H233.162C236.665 335.493 240.092 334.476 243.026 332.563C245.96 330.649 248.274 327.923 249.684 324.717L274.575 267.913L330.778 408.216C332.069 411.443 334.266 414.229 337.104 416.237C339.941 418.245 343.298 419.39 346.772 419.535C350.245 419.68 353.686 418.818 356.681 417.053C359.676 415.288 362.097 412.695 363.653 409.587L400.736 335.515H437.7C440.069 335.515 442.414 335.049 444.602 334.142C446.791 333.236 448.779 331.907 450.454 330.232C452.129 328.558 453.457 326.569 454.364 324.381C455.27 322.192 455.737 319.847 455.737 317.478C455.737 315.11 455.27 312.764 454.364 310.576C453.457 308.388 452.129 306.399 450.454 304.724C448.779 303.05 446.791 301.721 444.602 300.815C442.414 299.908 440.069 299.442 437.7 299.442H389.602C386.257 299.444 382.979 300.376 380.133 302.134C377.288 303.893 374.987 306.408 373.489 309.398L349.344 357.568L292.083 214.572C290.762 211.273 288.497 208.438 285.571 206.421C282.646 204.405 279.189 203.298 275.636 203.239C272.084 203.179 268.592 204.171 265.601 206.089C262.61 208.007 260.252 210.766 258.823 214.019V214.043Z" fill="#4ED0C5"/>
</svg>
